<?xml version="1.0" encoding="UTF-8"?><svg id="Layer_2" xmlns="http://www.w3.org/2000/svg" viewBox="0 0 594.8 90.81"><defs><style>.cls-1,.cls-2{fill:#fff;}.cls-2{fill-rule:evenodd;}</style></defs><g id="Layer_1-2"><g><path class="cls-2" d="M535.89,28.96h-4.96c-.27,0-.54,0-.81,0-1.35,0-2.7,0-4.06-.04-1.17,0-1.63-.5-1.46-1.68,.14-1.11,.47-2.18,.98-3.18,.64-1.27,1.16-2.61,1.54-3.98,.24-.81,.51-1.62,.78-2.43,.1-.31,.21-.62,.31-.93,.27-.82,.74-1.14,1.71-1.09,1.8,.09,3.62,.08,5.43,.07,.64,0,1.27,0,1.91,0,.73,0,1.46,.07,2.18,.19,.93,.14,1.33,.73,1.33,1.59,0,.51-.07,1.02-.24,1.51-.3,.86-.58,1.73-.87,2.6-.73,2.22-1.46,4.43-2.4,6.57-.28,.62-.75,.8-1.37,.8Zm-469.21,0h4.39c1.86-.05,3.96-1.41,4.5-2.76,.5-1.25,.89-2.53,1.29-3.81h0c.58-1.88,1.16-3.77,2.06-5.53,.51-1.01,.25-1.32-.88-1.34-.74,0-1.47,0-2.21,0-1.3,.01-2.6,.02-3.9-.03-1.78-.07-3.56,.32-5.15,1.14-.5,.24-.91,.61-1.21,1.08-1.05,1.64-1.55,3.53-2.05,5.35h0l-.06,.23c-.15,.54-.39,1.05-.64,1.55-.41,.84-.82,1.67-.75,2.67,0,.1-.12,.22-.23,.32l-.05,.05s-.09,.08-.14,.12c-.2,.17-.41,.34-.29,.65,.13,.33,.48,.32,.78,.32h0s.09,0,.14,0h1.47c.97,0,1.95-.01,2.92-.01Zm483.23,.02c-.45,0-.9-.02-1.35-.02-.57,0-1.15,0-1.72,0-.92,0-1.84,0-2.76,0-.95-.02-1.15-.36-.69-1.2,.34-.61,.58-1.28,.7-1.97,.01-.29,.1-.57,.26-.81,.68-.69,.91-1.57,1.15-2.45,.19-.71,.38-1.43,.81-2.05,.24-.35,.36-.77,.48-1.21h0c.09-.35,.19-.7,.35-1.02,1.08-2.17,3.16-2.53,5.16-2.69,1.85-.15,3.72-.11,5.59-.08,.65,.01,1.29,.02,1.94,.03,.92,0,1.22,.39,.84,1.09-.54,.99-.82,2.05-1.11,3.11h0c-.15,.56-.3,1.12-.49,1.67l-.15,.45c-.49,1.45-.99,2.92-1.59,4.31-.77,1.78-2.47,2.63-4.37,2.78-1.01,.08-2.02,.06-3.04,.04Zm-500.53-.02h4.3c1.36,0,2.05-.42,2.36-1.74,.35-1.48,.86-2.9,1.37-4.33h0c.56-1.54,1.11-3.09,1.46-4.7,.33-1.56-.15-2.45-1.74-2.47-1.86-.02-3.71-.02-5.57-.02h0c-1.32,0-2.64,0-3.96,0-.74,0-1.09,.34-1.26,1.03-.16,.65-.35,1.29-.58,1.92-.32,.89-.64,1.79-.96,2.68h0c-.63,1.74-1.26,3.49-1.83,5.25-.51,1.56,.11,2.33,1.74,2.35,1.17,.03,2.34,.03,3.51,.02h0c.39,0,.78,0,1.17,0Zm202.53,6.14h29.4c1.29,0,2.59,0,3.88,0,2.59,0,5.17-.01,7.76,0,.28,0,.56-.03,.83-.07,.45-.05,.9-.11,1.35-.01,.72,.16,.99,.54,.93,1.3-.07,.93-.45,1.74-.83,2.55-.24,.51-.48,1.03-.64,1.57-.33,1.14-.7,2.27-1.06,3.4h0c-.36,1.12-.72,2.24-1.05,3.37-.21,.69-.51,1.08-1.29,1.16-2.25,.23-4.5,.19-6.76,.15h0c-.86-.01-1.72-.03-2.57-.03-.38-.01-.76-.09-1.12-.22-.77-.27-1.02-.87-.77-1.65,.06-.19,.12-.38,.18-.57,.29-.94,.58-1.87,1.07-2.73,.01-.03,.02-.06,.03-.09,.78-2.31-.16-3.56-2.55-3.46-1.29,.05-2.9,1.39-3.29,2.65-.47,1.52-.97,3.02-1.48,4.53l-.22,.65c-.52,1.55-1.14,3.08-1.75,4.6h0c-.75,1.84-1.49,3.68-2.07,5.58-.2,.64-.41,1.27-.63,1.91-.41,1.2-.82,2.4-1.09,3.65-.2,.92-.65,1.79-1.1,2.66-.2,.38-.39,.76-.57,1.14-.04,.08-.09,.15-.15,.22-.09,.12-.17,.23-.19,.35-.16,1.28-.99,1.42-2.06,1.39-1.68-.04-3.37-.03-5.05-.03h0c-.61,0-1.21,0-1.82,0-1.33-.01-1.43-.31-1.27-1.6,.13-1.09,.55-2.07,.97-3.05h0c.38-.89,.76-1.77,.92-2.73,.18-.9,.43-1.79,.73-2.66,.48-1.61,1.13-3.16,1.94-4.63,.26-.4,.44-.84,.52-1.31,.14-.93,.49-1.78,.85-2.64h0c.28-.67,.56-1.35,.73-2.06,.08-.34,.19-.67,.29-1,.16-.49,.31-.98,.39-1.49,.08-.67,.34-1.31,.74-1.85,.54-.73,.74-1.66,.58-2.55-.06-.91-.81-1.61-1.71-1.6h-.12c-1.37-.03-2-.04-2.43,.24-.36,.24-.59,.69-1,1.52-.11,.22-.23,.46-.37,.74-.31,.6-.54,1.23-.78,1.87-.21,.56-.42,1.12-.68,1.67-.89,1.86-2.11,2.63-4.13,2.45-.73-.08-1.46-.08-2.19,0-1.17,.14-2.34,.12-3.51,.11-.8-.01-1.59-.02-2.38,.02-.98,.05-1.15-.19-.98-1.23,.13-.78,.47-1.48,.8-2.17h0c.11-.22,.21-.44,.31-.66,.26-.58,.46-1.18,.66-1.79,.28-.84,.56-1.68,1-2.46,.26-.51,.44-1.07,.53-1.64,.5-2.37,1.85-3.48,4.28-3.48ZM110.6,69.07h5.25c.67,0,1.33-.13,1.53-.88,.22-.94,.6-1.83,.97-2.71,.34-.82,.69-1.64,.92-2.5,.3-1.14,.71-2.3,1.13-3.43,.2-.55,.41-1.09,.63-1.63,.61-1.55,1.21-3.1,1.59-4.75,.22-.97-.12-1.45-1.12-1.54-.31-.03-.63-.03-.95-.03-.29,0-.58,0-.86-.02-1.77-.14-2.56-1.8-1.57-3.28,.07-.1,.14-.19,.21-.29,.22-.3,.45-.59,.48-.95,.14-1.37,.63-2.64,1.11-3.9h0c.09-.23,.17-.45,.26-.68,.21-.55,.38-1.12,.56-1.69h0c.35-1.15,.71-2.31,1.36-3.36,.81-1.3,.15-2.35-1.38-2.35-.75,0-1.52-.05-2.29-.1-.79-.05-1.59-.1-2.38-.1-6.16,.02-12.32,.02-18.48,.02-2.46,0-4.93,0-7.39,0-.27,0-.54,.02-.81,.03-.24,.02-.48,.03-.72,.03-.51,0-1.02,.02-1.52,.03-1.33,.03-2.65,.07-3.98,0-1.01-.09-2.03-.07-3.03,.08-.96,.18-1.84,.72-2.16,1.56-.17,.44-.38,.86-.6,1.28h0c-.39,.77-.79,1.53-.89,2.41-.02,.32-.13,.63-.31,.9-.76,.94-1.05,2.06-1.33,3.19-.15,.6-.31,1.2-.53,1.77-.5,1.27-.96,2.56-1.41,3.85h0c-.18,.51-.36,1.01-.54,1.52-.12,.33-.23,.67-.34,1-.38,1.14-.76,2.27-1.41,3.31-.1,.24-.15,.51-.13,.77-.05,.54-.2,1.07-.44,1.56-.57,1.31-1,2.67-1.43,4.02-.46,1.47-.93,2.94-1.57,4.34-.11,.3-.18,.62-.18,.94-.11,1.22,.2,1.56,1.42,1.56,3.18,0,6.36,0,9.55,.02,.88,0,1.39-.39,1.87-1.07,.63-.9,.92-1.93,1.2-2.96h0c.13-.47,.26-.94,.42-1.4,.36-1,.68-2.01,1.01-3.03h0c.72-2.26,1.44-4.53,2.58-6.66,.82-1.53,.46-2.28-1.31-2.19-1.53,.08-3.07,0-4.5-.61-.66-.27-1.13-.86-1.26-1.56-.13-.7,.11-1.42,.63-1.91,1.02-1.1,2.46-1.71,3.96-1.68,6.35,.06,12.7,.05,19.06,.04h.01c1.82,0,3.64,0,5.46,0,.51,.02,1.02,0,1.52-.06,1.15-.17,2.13,.2,2.75,1.14,.62,.94,.23,1.88-.24,2.8-.68,1.26-1.27,2.56-1.79,3.9-.36,.98-.66,1.99-.96,2.99-.29,.95-.57,1.91-.9,2.84-.18,.51-.35,1.02-.53,1.53h0c-.62,1.84-1.24,3.68-2.21,5.38-.19,.37-.3,.78-.33,1.19-.11,1.07,.12,1.32,1.19,1.32,.86,0,1.72,0,2.58,0s1.72,0,2.58,0Zm218.57-23.03h-13.68c-3.3,0-6.6,0-9.9,0-2.38,0-3.82,1.71-3.49,4.05,.1,.85,.69,1.25,1.44,1.48,.76,.24,1.54,.23,2.31,.21,.3,0,.61-.01,.91,0,.48,0,.95,0,1.43,.05,.52,.07,.76,.38,.64,.95-.45,2.41-1.19,4.76-2.19,7-.28,.6-.49,1.22-.7,1.85h0c-.31,.92-.63,1.84-1.15,2.69-.44,.71-.67,1.59-.9,2.46-.1,.38-.2,.76-.32,1.13-.25,.79-.65,1.14-1.5,1.14h-10.02c-1.13,0-1.33-.3-1.19-1.39,.17-1.32,.6-2.57,1.03-3.82h0c.24-.71,.49-1.42,.68-2.14,.17-.62,.38-1.24,.6-1.86h0c.16-.46,.32-.91,.46-1.37,.18-.58,.46-1.11,.74-1.66,.21-.4,.42-.81,.59-1.24,.57-1.42,1.03-2.87,1.49-4.33h0c.43-1.36,.86-2.73,1.38-4.06,1.33-3.38,2.63-6.77,3.79-10.24,.74-2.2,1.48-4.4,2.36-6.56,.47-1.18,.91-2.42,1.35-3.64h0l.14-.41,.17-.49c.13-.38,.24-.77,.35-1.17,.29-1.06,.58-2.15,1.44-2.96,.23-.27,.53-.47,.87-.57,.46-.07,.92-.16,1.37-.25,1.09-.22,2.17-.44,3.32-.31,.84,.1,1.69,.09,2.54,.08,.43,0,.85,0,1.28,0,1.03,.02,1.16,.2,1.03,1.21-.08,.73-.31,1.44-.67,2.08-.34,.54-.55,1.16-.62,1.8,0,.23-.05,.45-.18,.64-.62,.67-.88,1.51-1.14,2.34-.17,.53-.33,1.07-.59,1.56-.52,.89-.78,1.91-.73,2.94,.08,.98,.46,1.49,1.41,1.62,2.5,.36,5.02,.28,7.52,.12,.61-.04,1.21,0,1.8,.04,.42,.03,.83,.06,1.24,.06h18.81c1.81,0,2.25,.78,1.39,2.41-.6,1.26-1.12,2.57-1.54,3.9-.24,.69-.53,1.35-.82,2.02-.5,1.15-.99,2.29-1.24,3.53-.17,.61-.4,1.21-.67,1.79-.63,1.61,0,2.72,1.67,2.98,.63,.08,1.27,.08,1.9,0,.91-.1,1.41,.43,1.31,1.29-.1,.86-.21,1.72-.74,2.45-.23,.35-.37,.75-.41,1.17-.13,.79-.33,1.56-.97,2.13-.13,.14-.22,.32-.26,.5l-.45,1.38c-.78,2.38-1.56,4.77-2.3,7.17-.27,.87-.79,1.27-1.67,1.27h-10.21c-1-.02-1.33-.36-1.22-1.36,.04-.48,.15-.95,.33-1.39,.73-1.6,1.22-3.29,1.72-4.97h0c.14-.49,.29-.98,.44-1.47,.32-1.05,.76-2.06,1.19-3.07h0c.26-.6,.51-1.19,.74-1.79,.52-1.39,1.04-2.8,1.52-4.21,.14-.59,.34-1.17,.58-1.72,.24-.46,.35-.97,.33-1.48,0-1.09-.37-1.52-1.48-1.55-1.03-.02-2.07-.01-3.11,0-.52,0-1.04,0-1.56,0Zm52.53,23.03h14.34c1.23,0,3.24-1.26,3.57-2.44,.16-.6,.38-1.17,.6-1.75h0c.23-.62,.47-1.23,.63-1.87,.51-1.98,1.26-3.88,2.01-5.77h0c.29-.73,.58-1.46,.85-2.2,.16-.44,.34-.88,.51-1.32,.47-1.2,.94-2.39,1.25-3.61,.21-.78,.51-1.52,.81-2.26h0c.41-1,.81-1.99,.98-3.07,.09-.27,.23-.53,.41-.75,.29-.5,.5-1.04,.63-1.59,.19-.69-.11-.94-.75-1.01-2.82-.24-5.65-.28-8.48-.14-1.34,.07-2.68,.08-4.02,.09h0c-.37,0-.74,0-1.11,.01-1.96,.02-2.96-1.2-2.82-3.16,.09-.73,.29-1.44,.58-2.12,.27-.72,0-1.11-.77-1.1-.3,0-.6,.02-.91,.03-.3,.02-.6,.03-.91,.03h-20.93c-.72,0-1.44,0-2.17,0h0c-1.44,0-2.89-.01-4.33,0-1.27,.02-2.51,.56-3,1.66-.75,1.65-1.37,3.36-1.99,5.07h0c-.18,.51-.37,1.02-.55,1.52-.56,1.38-1.05,2.79-1.47,4.23-.27,1.31-.7,2.59-1.27,3.8-.55,1.04-.93,2.14-1.31,3.24h0c-.22,.63-.44,1.26-.69,1.88-.13,.32-.27,.65-.41,.97-.47,1.07-.94,2.15-.99,3.37-.07,.31-.21,.61-.42,.85l-.06,.09c-.16,.24-.31,.48-.11,.78,.2,.3,.46,.29,.74,.27h.11c3.46-.14,6.91-.11,10.37-.08h0c1.28,0,2.56,.02,3.84,.02,1.37,0,2.29,1.13,2.33,2.5,.02,.78-.29,1.43-.61,2.09-.67,1.34-.43,1.72,1.05,1.72l14.42,.03Zm129.97,0h-28.84c-1.4,0-1.62-.31-1.24-1.68,.11-.36,.28-.71,.49-1.03,.32-.54,.38-1.2,.17-1.79-.21-.59-.68-1.06-1.27-1.26-1.11-.39-2.29-.58-3.46-.58-2.55,.01-5.09,0-7.64,0h0c-1.27,0-2.54,0-3.82,0-1.3,0-1.57-.45-.9-1.57,.26-.44,.45-.92,.57-1.42,.53-1.97,1.23-3.89,2.09-5.74,.67-1.54,1.21-3.16,1.73-4.76,.34-1.03,.68-2.07,1.01-3.11,.28-.87,.56-1.73,.85-2.6,.24-.74,.56-1.44,.88-2.14,.39-.85,.77-1.69,1.02-2.61,.34-1.25,.91-2.59,2.29-3.27,.43-.27,.93-.42,1.43-.43h.29c5.37-.02,10.73-.05,16.1-.1,.91,0,1.82,.02,2.73,.05,1.25,.04,2.5,.08,3.75,.02,.81-.04,1.62-.01,2.42,.01,1.19,.04,2.39,.07,3.58-.08,1.06-.14,1.46,.42,1.13,1.47-.25,.83-.42,1.68-.53,2.53-.17,1.26,.42,2.03,1.67,2.23,1.28,.2,2.56,.16,3.85,.11,.24,0,.47-.02,.71-.02l.9-.03c2.65-.08,5.32-.16,7.97,.12,.47,.02,.95,0,1.42-.05,.8-.05,1.13,.33,.8,1.03-1.29,2.72-2.24,5.56-3.2,8.4-.56,1.66-1.11,3.31-1.74,4.94-.22,.58-.45,1.16-.69,1.74h0c-.48,1.2-.96,2.4-1.31,3.63-.17,.6-.42,1.17-.67,1.74-.43,.99-.86,1.98-.89,3.13-.04,1.51-2.1,3.11-3.65,3.11Zm-355.01,0h14.41c1.25,.05,2.41-.62,3-1.73,1.04-2.04,1.91-4.16,2.61-6.34,.12-.37,.24-.74,.36-1.11h0c.39-1.21,.79-2.41,1.11-3.64,.37-1.25,.84-2.48,1.4-3.66,.63-1.45,1.27-2.94,1.76-4.41,.23-.71,.48-1.41,.73-2.11,.44-1.25,.88-2.5,1.24-3.78,.2-.71-.03-1.14-.74-1.01-1.03,.2-2.05,.11-3.06,.02-.56-.05-1.13-.1-1.69-.1-.68,0-1.35,.06-2.03,.12-1.1,.09-2.2,.19-3.31,.03-1.01-.15-2.03-.15-3.04,0-2.33,.34-3.83-1.37-3.26-3.64,.09-.38,.28-.72,.55-1.01,.36-.34,.48-.88,.28-1.34-.2-.52-.66-.5-1.09-.48h-.05c-.37,.02-.74,.05-1.11,.07-.55,.04-1.1,.08-1.65,.09-2.61,.01-5.21,0-7.82,0h0c-1.3,0-2.6,0-3.91,0h-14.51c-1.43,0-3.09,1.1-3.6,2.4-.35,.89-.7,1.78-.98,2.69l-.23,.73c-.97,3.08-1.93,6.14-3.39,9.05-.34,.69-.56,1.45-.79,2.22h0c-.16,.56-.33,1.13-.55,1.68-.33,.85-.58,1.72-.84,2.6-.39,1.35-.79,2.7-1.44,3.96-.74,1.43-.14,2.32,1.44,2.32h10.4c1.18,.04,2.34,.23,3.47,.57,.86,.16,1.46,.94,1.38,1.82,0,.83-.14,1.66-.44,2.44-.55,1.34-.45,1.51,1.03,1.51l14.32,.05Zm-120.18,0c-1.7,0-3.4,0-5.11,0l-19.86,.03c-.38,.03-.76,0-1.14-.08-.61-.2-.87-.63-.67-1.34,.24-.87,.58-1.7,.91-2.53,.44-1.1,.89-2.21,1.12-3.4,.23-1.02,.58-2.01,1.06-2.95,.38-.8,.68-1.62,.98-2.45,.29-.82,.59-1.64,.97-2.43,.61-1.33,1.08-2.73,1.42-4.16,.7-2.71,1.74-5.28,2.78-7.84,.61-1.49,1.09-3.02,1.57-4.54,.57-1.82,1.15-3.63,1.92-5.37,.57-1.26,1.01-2.56,1.46-3.86h0c.49-1.42,.98-2.84,1.62-4.2,.4-1,.73-2.03,.98-3.08,.3-1.01,.69-1.98,1.08-2.95,.4-.98,.79-1.96,1.09-2.98,.5-1.7,1.03-3.49,2.47-4.76,.38-.38,.89-.61,1.42-.65,3.13-.14,6.27-.14,9.4-.06h.05c.79,.03,1.18,.04,1.32,.23,.13,.18,.05,.51-.11,1.15h0c-.03,.11-.06,.23-.09,.36-.2,.84-.48,1.64-.77,2.44h0c-.26,.73-.52,1.45-.71,2.2-.25,.98-.7,1.91-1.14,2.84-.19,.39-.38,.79-.55,1.19-.03,.07-.07,.13-.12,.19-.07,.1-.14,.2-.16,.31-.14,1.1-.54,2.11-.94,3.12-.28,.7-.56,1.41-.75,2.14-.45,1.71-.93,3.43-1.82,4.99-.35,.61-.57,1.27-.8,1.94-.16,.48-.32,.96-.53,1.42-.39,.87-.65,1.8-.91,2.73-.21,.77-.43,1.54-.72,2.27-.35,.88-.65,1.78-.95,2.67-.28,.85-.57,1.7-.89,2.53-.19,.47-.4,.94-.61,1.41-.51,1.12-1.02,2.24-1.22,3.48-.33,1.97-1.94,3.11-3.91,3.31-.58,.06-1.16,.03-1.74,.01-.81-.03-1.62-.07-2.43,.13-1.8,.36-3.01,2.07-2.77,3.9,.04,.84,.68,1.53,1.5,1.63,1.54,.27,3.11,.31,4.67,.12,.77-.09,1.54-.06,2.32-.02h0c.62,.03,1.24,.06,1.86,.02,1.3-.08,2.61-.05,3.91-.02h0c1.07,.03,2.14,.05,3.21,.02,1.11-.04,2.22,0,3.34,.05h0c1.01,.04,2.03,.08,3.04,.06,1.08-.02,2.17-.05,3.25-.08h0c1.2-.03,2.39-.07,3.59-.09,.82,.04,1.56-.49,1.79-1.29,.35-.89,.72-1.77,1.09-2.64,.37-.88,.74-1.76,1.09-2.64,.43-1.06,.78-2.16,1.05-3.28,.24-1.05,.63-2.05,1.01-3.05,.23-.6,.46-1.21,.66-1.82,.23-.72,.54-1.42,.85-2.12,.34-.78,.69-1.57,.93-2.4,.07-.24,.18-.48,.28-.72,.11-.26,.23-.52,.3-.79,.36-1.24,1.77-2.25,3.06-2.31,1.46-.07,2.91-.04,4.37-.02h0c1.72,.03,3.44,.07,5.16-.07,.88-.07,1.12,.28,.91,1.15-.51,1.97-1.2,3.88-2.08,5.71-.55,1.21-1,2.46-1.37,3.74-.28,.97-.62,1.92-.96,2.87h0c-.14,.4-.28,.8-.42,1.2-.69,1.99-1.77,2.78-4,2.9-.38,.01-.76,0-1.15,0-.19,0-.38,0-.57,0-1.28,0-2.11,.55-2.54,1.75-.08,.22-.17,.45-.25,.67-.35,.92-.7,1.84-.86,2.79-.31,1.72-.86,3.39-1.65,4.95-.32,.62-.53,1.29-.73,1.96-.35,1.11-.7,2.22-1.53,3.12-.73,.79-1.4,1.3-2.58,1.3-4.92-.04-9.83-.04-14.75-.03Zm175.11-23.03h15.75c.41-.02,.83,0,1.23,.07,1.03,.19,2.2,1.61,2.06,2.45-.21,1.26-1.67,2.8-2.92,2.99-.88,.15-1.77,.23-2.67,.25-2.41,.03-4.83,.03-7.23-.08-2.2-.1-3.56,.72-4.55,2.56-.22,.46-.37,.95-.45,1.45-.02,.09-.03,.18-.05,.27-.05,.31-.1,.63-.29,.81-.68,.66-.84,1.49-1,2.33l-.04,.19c-.06,.38-.23,.74-.48,1.02-.35,.38-.58,.85-.67,1.36-.81,4.07-2.35,7.9-3.97,11.68-.56,1.31-.95,2.66-1.34,4.01-.24,.82-.47,1.63-.75,2.44-.47,1.37,0,1.87,1.45,1.89,1.18,.02,2.36,0,3.54,0h0c2.06-.02,4.12-.03,6.18,.08,.52,.06,1.02-.23,1.23-.72,.48-.97,.86-1.98,1.24-2.98h0c.25-.65,.49-1.3,.76-1.95,.88-2.01,1.62-4.08,2.2-6.19,.22-.87,.54-1.72,.86-2.56,.4-1.04,.79-2.07,1-3.17,.23-1.21-.26-1.93-1.46-1.88-1.06,.04-2.06-.19-3.07-.42-.38-.09-.77-.18-1.16-.25-.42-.03-.79-.29-.97-.67-.39-1.11-.05-2.35,.85-3.1,.51-.39,1.09-.67,1.7-.84,2.45-.61,4.96-.52,7.43-.43h0l.45,.02,.54,.02c.82,.02,1.63,0,2.45-.04,1.44-.06,2.87-.11,4.3,.13,.22,.01,.45,0,.67-.04,.75-.06,1.16-.43,1.38-1.2,.52-1.77,1.16-3.5,1.9-5.19,.13-.3,.27-.6,.41-.9,.39-.83,.77-1.66,1.02-2.51,.2-.71,.42-1.42,.63-2.13h0v-.02c.36-1.18,.72-2.37,1.03-3.56,.39-1.45,.92-2.85,1.59-4.19,.59-1.18,.41-1.87-.91-2.1-.35-.05-.7-.07-1.05-.05h-44.29c-.76-.05-1.53,.03-2.27,.23-1.37,.48-2.55,1.25-3,2.81l-.03,.1h0c-.47,1.69-.95,3.38-1.59,5.01-.16,.4-.25,.82-.34,1.25-.14,.66-.28,1.31-.66,1.83-.65,.9-1.01,1.91-1.38,2.91h0c-.15,.42-.3,.84-.47,1.24-.87,2.07-1.47,4.26-2.08,6.44h0l-.18,.66c-.42,1.49-1.03,2.86-1.65,4.24-.15,.32-.29,.65-.43,.97-.41,.94-.68,1.91-.95,2.88-.2,.71-.4,1.42-.65,2.12-.37,1.07,.03,1.46,1.18,1.46,1.83,0,3.67,0,5.5,0h0c3.67,0,7.33,0,11.01,0,1.05,0,1.68-.42,2.06-1.34,.43-1.05,.73-2.13,1.03-3.22h0c.23-.81,.45-1.62,.73-2.42,.15-.43,.29-.87,.42-1.3,.33-1.06,.66-2.12,1.2-3.06,.36-.63,.56-1.33,.77-2.04,.23-.78,.46-1.56,.9-2.27,.51-.82,0-1.49-.84-1.6-2.28-.3-4.57-.24-6.86-.16-1.39,.07-2.79,.02-4.18-.16-1.96-.28-2.56-2.08-1.31-3.69,.85-1.18,2.24-1.86,3.69-1.8,3.93,.04,7.83,.04,11.74,.03h.02c1.34,0,2.69,0,4.03,0Zm242.38,23.04h-14.61c-4.8,0-9.61-.01-14.41-.03-1.43,0-1.71-.45-1.07-1.76l.05-.1,.05-.09,.09-.17h0c.43-.84,.85-1.65,.12-2.63-.41-.57-1.02-.98-1.71-1.13-2.32-.56-4.67-.48-7.02-.38-1.74,.07-3.48,.09-5.22,.05-.72-.07-1.45-.08-2.18-.02-.9,.14-1.26-.36-.92-1.2,.4-1,.77-2.01,1.14-3.02,.36-.99,.72-1.98,1.11-2.95,.88-2.18,1.63-4.41,2.38-6.64h0c.42-1.26,.85-2.52,1.29-3.77,.96-2.69,1.99-5.36,3.09-7.99,.61-1.45,1.85-2.15,3.42-2.15,1.65,0,3.3,0,4.95,0,6.05-.01,12.1-.03,18.15,.03,2.32,.02,3.4-1.02,3.91-3.25,.43-1.69,1.04-3.32,1.83-4.88,.76-1.47,1.34-3.03,1.72-4.65,.31-1.5,1.31-2.37,2.45-3.32,1.31-1.09,2.73-1.11,4.18-1.14,.35,0,.7-.01,1.06-.03,1.49-.09,2.98-.06,4.48-.03,.32,0,.64,.01,.96,.02,1.49,.02,1.69,.4,1.02,1.72-.61,1.21-1.01,2.5-1.41,3.78-.13,.42-.26,.84-.4,1.26-.16,.5-.35,.98-.54,1.47-.09,.22-.17,.45-.26,.67-.36,.96-.68,1.93-1,2.9h0c-.29,.87-.58,1.74-.89,2.6-.52,1.43-1.36,2.62-2.97,2.95-1.27,.32-2.57,.48-3.87,.5-1.12-.02-2.13,.42-3.06,.97-.85,.5-1.38,2.17-1.05,3.29,.28,.93,1.05,1.13,1.81,1.33,.16,.04,.32,.08,.48,.13,.25,.05,.51,.06,.76,.03h12.96c1.28,0,1.59,.38,.93,1.47-.47,.79-.73,1.66-.99,2.52-.14,.48-.28,.94-.46,1.39-.18,.45-.32,.91-.47,1.37h0c-.26,.81-.51,1.62-.93,2.36-.13,.18-.22,.39-.27,.61-.15,1.37-.7,2.64-1.24,3.89-.12,.26-.23,.53-.34,.79-.36,.87-.67,1.76-.97,2.65-.32,.94-.64,1.87-1.03,2.79l-.18,.42c-.6,1.4-1.21,2.83-1.35,4.39-.12,1.24-2.22,2.99-3.55,2.99Zm106.06,0h0c2.76,0,5.52-.01,8.27,.03,1.08,.06,2.14-.3,2.96-1.01,.68-.63,1.17-1.45,1.41-2.35,1.24-3.78,2.49-7.56,3.96-11.26,1.02-2.56,1.87-5.2,2.72-7.83,.36-1.11,.71-2.21,1.08-3.31,.11-.33,.28-.64,.51-.91,.51-.6,.23-.9-.42-1.05-.41-.1-.83-.05-1.26,0-.25,.03-.5,.06-.74,.05-2.57-.01-5.13,0-7.7,0h0c-1.28,0-2.56,0-3.84,0-.48,0-.95-.05-1.41-.16-1.42-.34-1.89-.96-1.84-2.35,.04-1.18,1.08-2.44,2.14-2.63,.61-.11,1.22-.23,1.82-.35h0c1.35-.27,2.7-.54,4.07-.69,1.67-.17,2.26-1.25,2.8-2.57,.2-.49,.34-1.02,.47-1.54,.2-.76,.4-1.51,.78-2.15,.52-.93,.95-1.91,1.27-2.92,.55-1.5,1.05-3.02,1.54-4.54h0c.8-2.45,1.59-4.9,2.64-7.26,.48-1.09,.97-2.21,1.37-3.36,.43-1.2,.05-1.68-1.18-1.49-.78,.14-1.58,.18-2.37,.12-1.17-.13-2.33-.11-3.5-.09-.95,.02-1.91,.03-2.86-.03-1.73-.12-3.93,1.57-4.33,3.26-.43,1.72-.99,3.4-1.56,5.08-.39,1.16-.79,2.32-1.13,3.5l-.08,.27c-.31,1.06-.64,2.18-1.19,3.09-.74,1.23-1.15,2.57-1.55,3.9-.2,.67-.41,1.34-.65,1.99-.24,.63-.41,1.29-.59,1.95h0c-.26,.95-.52,1.91-.95,2.77-.52,1.06-.95,2.15-1.37,3.24h0c-.29,.76-.59,1.51-.91,2.26-.46,1.06-.77,2.17-1.07,3.27h0c-.19,.68-.37,1.36-.6,2.02-.2,.6-.43,1.19-.66,1.77-.41,1.05-.82,2.09-1.03,3.2-.18,.97,.23,1.57,1.18,1.48,.45-.04,.9,0,1.33,.02,.48,.04,.95,.07,1.42,0,1.52-.21,3.02-.13,4.53-.04,.99,.06,1.99,.12,2.99,.09,.9-.02,1.43,.46,1.68,1.28,.64,2.05-1.02,4.42-3.16,4.47-1.37,.03-2.74,.04-4.1,0-1.22-.04-2.43-.02-3.65,0-2.06,.03-4.12,.07-6.17-.17-2.4-.28-3.65-2.4-2.74-4.62,.44-1.08,.18-1.43-.96-1.54-2.16-.22-4.33-.2-6.49-.18-.67,0-1.33,.01-2,.01-.92-.02-1.84-.11-2.75-.25-.55-.07-1.04-.27-1.28-.86-.41-1.13-.16-2.4,.64-3.29,.85-.94,2.07-1.45,3.33-1.38,2.1,.02,4.2,.01,6.3,0h0c1.05,0,2.1,0,3.15,0h.13c.51,0,1.03,0,1.4-.39,1.09-1.17,2.14-2.48,2.61-3.94,.21-.66,.47-1.31,.72-1.96h0c.48-1.22,.95-2.44,1.17-3.75,.12-.73,0-1.03-.77-1.01-.33,0-.65,.03-.96,.05-.41,.02-.81,.05-1.23,.05-1.88,0-3.75,0-5.63,0h0c-3.75,0-7.51,0-11.26,0-.76,0-1.5,.26-2.09,.74-.86,.63-1.2,1.51-1.55,2.42-.11,.28-.22,.56-.34,.83-.89,1.87-1.61,3.81-2.14,5.81-.18,.74-.4,1.48-.67,2.2-.82,2.24-1.7,4.45-2.61,6.66-.75,1.8-1.31,3.67-1.88,5.55-.24,.79-.47,1.57-.72,2.36-.28,.87,.06,1.4,.92,1.26,1.35-.23,2.69-.17,4.04-.1,1.09,.05,2.19,.1,3.29,0,2.46-.23,4.95,.02,7.41,.34,.48,.07,.93,.24,1.03,.72,.21,.97,.4,2.01-.21,2.88-1.15,1.62-2.84,2.33-4.76,2.27-1.01-.06-2.03-.04-3.03,.05-1.29,.1-2.36,1.05-2.6,2.33-.37,1.68-.89,3.33-1.57,4.91-.22,.49-.37,1-.52,1.52-.29,.98-.59,1.96-1.3,2.77-.52,.59-.16,1.17,.67,1.15,1.16-.03,2.33-.01,3.49,0,2.08,.03,4.16,.06,6.23-.16,2.38-.25,3.54-1.34,3.95-3.72,.1-.47,.25-.92,.47-1.34,.34-.65,.56-1.36,.67-2.08,.05-.51,.24-1,.56-1.41,.29-.39,.48-.84,.55-1.31,.41-1.98,1.2-2.62,3.24-2.62h11.83v.02c1.06,0,2.12,0,3.18,0h0Zm-1.57,9.4h-7.64c-.25,0-.5,.03-.75,.05-.25,.03-.51,.05-.77,.05-.96,0-1.27,.55-1.6,1.41-.85,2.2-1.89,4.34-3.94,5.71-.37,.25-.69,.56-.97,.91-1.97,2.49-4.71,3.58-7.69,3.89-3.95,.41-7.95,.31-11.92,.2-1.2-.04-2.4,0-3.6,.02h0c-1.27,.03-2.55,.06-3.82,.01-.85-.03-1.56-.25-2.1-.93-.49-.62-.64-1.25-.07-1.9,.26-.29,.44-.63,.54-1.01,.35-1.37,.85-2.69,1.34-4.01,.5-1.33,1-2.67,1.35-4.05,.11-.41,.29-.8,.47-1.19,.24-.51,.48-1.02,.55-1.58,0-.04,.01-.08,.02-.11,.03-.19,.07-.38-.1-.51-.17-.14-.36-.02-.52,.08-.03,.02-.06,.04-.09,.05-.35,.21-.72,.36-1.1,.52-.7,.3-1.41,.59-1.95,1.2-.29,.31-.82,.33-1.27,.35h-.09c-.92,.04-1.84,.16-2.73,.26h0c-.21,.03-.42,.05-.63,.08-5.14,.64-10.29,.55-15.43,.46h0c-3.13-.05-6.27-.11-9.4,0-1.18,.04-2.37,.08-3.57,.11h-.02l-1.45,.04c-.16,.02-.32,.02-.47,0-2.63-.56-5.04-1.49-6.57-3.92-.28-.54-.43-1.14-.44-1.75-.08-.83-.46-1.16-1.33-1.22-1.14-.08-2.28-.05-3.42,0-.86,.03-1.72,.06-2.58,.03-.71-.07-1.41,.22-1.86,.78-1.77,2.25-4.19,3.61-6.69,4.8-1.62,.77-3.39,1.17-5.17,1.17-7.92-.02-15.85-.02-23.78,0-1.01,0-2.02,.02-3.03,.05-.89,.02-1.78,.04-2.67,.05-.64,.04-1.28-.11-1.84-.41-.27-.17-.57-.28-.88-.34-2.05-.27-3.12-1.77-4.18-3.26l-.07-.09c-.27-.39-.3-.84-.32-1.29h0c-.01-.19-.02-.38-.05-.57-.12-.72-.41-.97-1.22-.93-1.7,.08-3.42,0-5.12-.09-1.09-.12-2.16,.31-2.87,1.15-1.07,1.27-2.34,2.36-3.76,3.22-3.33,1.9-6.89,2.64-10.75,2.58-4.69-.07-9.38-.06-14.08-.05h0c-3.55,0-7.1,.02-10.65-.01-1.68-.02-3.35-.27-4.96-.74-2.18-.64-3.67-2.31-4.24-4.64v-.03c-.17-.69-.25-1.03-.46-1.19-.21-.16-.54-.15-1.21-.13h-.14c-1.49,.05-3,.04-4.48-.05-.78-.04-1.05,.2-1.33,.95-.18,.47-.33,.97-.48,1.46-.44,1.44-.88,2.9-2.15,3.95-.53,.45-1.05,.73-1.72,.61-1.34-.23-2.68-.19-4.02-.16-.66,.02-1.32,.03-1.98,.02-1.75-.04-3.49-.02-5.24-.01h0c-2.07,.01-4.14,.03-6.22-.04-3.51-.11-6.21-1.73-7.8-4.99-.23-.5-.34-1.04-.33-1.58v-3.36c-.04-.29,0-.58,.12-.84,.45-.64,.68-1.37,.91-2.1,.25-.79,.49-1.58,1.02-2.24,.09-.1,.15-.21,.18-.34,.12-.88,.45-1.7,.79-2.52h0c.35-.86,.71-1.73,.8-2.67,.07-.57,.26-1.13,.54-1.62,.3-.55,.22-1.07-.51-1.09-.27,0-.54-.01-.82-.02h0c-1.22-.04-2.45-.07-3.65,.12-.65,.06-1.2,.51-1.39,1.14-.16,.44-.32,.89-.49,1.34h0v.02c-.33,.89-.66,1.79-.96,2.71-1.1,3.33-2.33,6.61-3.69,9.85-.51,1.31-.93,2.65-1.23,4.03-.28,1.18-.76,2.31-1.44,3.32-.51,.77-1.16,.99-2.16,1.01-.66,.02-1.33-.02-1.99-.07-1.08-.08-2.16-.16-3.23,.07-.61,.13-1.22,.05-1.82-.03-.41-.05-.81-.1-1.22-.1-1.38,.04-2.77,.03-4.15,.03-1.79,0-3.59,0-5.38,.07-1.43,.06-2.92-.52-4.2-1.34-1.01-.68-1.9-1.53-2.63-2.5-1.05-1.31-1.12-2.96-1.13-4.55,.05-.93,.16-1.85,.33-2.76,0-.05,0-.1,.01-.15h0c0-.15,.02-.31,.1-.41,.59-.7,.86-1.54,1.12-2.37h0c.18-.58,.37-1.16,.66-1.69,.18-.3,.31-.63,.38-.97,.17-1.27,.55-2.5,1.1-3.66,.33-.67,.12-.95-.64-1.04-.83-.1-1.65-.06-2.48-.01-.57,.03-1.13,.06-1.7,.04-.42-.05-.83,.19-1,.58-1.03,2.13-1.67,4.4-2.29,6.67l-.07,.26h0c-.18,.65-.36,1.3-.79,1.85-.21,.32-.33,.7-.33,1.08,.01,.32-.06,.64-.21,.92-.64,.78-.94,1.7-1.23,2.62-.18,.56-.36,1.12-.62,1.65-.3,.6-.5,1.25-.6,1.91-.43,2.71-2.03,4.12-4.73,3.92-2.6-.2-5.2-.17-7.79-.15h0c-1.38,.01-2.75,.02-4.13,0-1.67-.03-3.27-.06-4.89-.6-3.02-1.01-5.57-4.7-5.15-7.88,.16-1.62,.57-3.2,1.23-4.68,.83-1.72,1.44-3.55,2.05-5.37,.22-.66,.45-1.33,.68-1.99,.26-.73,0-1.08-.67-.9-1.07,.29-2.13,.19-3.19,.09-.39-.04-.77-.07-1.16-.09-.75-.03-.96,.17-1.17,.86-.17,.54-.32,1.09-.48,1.64h0c-.45,1.62-.91,3.24-1.73,4.76-.56,1.01-1.37,1.27-2.36,1.28h-6.21c-1.77,0-2.07,.27-2.47,1.96-.15,.62-.41,1.19-.67,1.76h0c-.23,.52-.47,1.04-.63,1.59-.09,.34-.18,.67-.27,1.01-.39,1.45-.77,2.91-1.45,4.26-.05,.08-.09,.17-.11,.26-.08,1.23-.61,2.3-1.14,3.37-.22,.44-.44,.88-.62,1.33-.68,1.63-1.18,3.3-1.68,4.98h0c-.26,.85-.51,1.7-.79,2.55-.48,1.31-1.77,2.14-3.15,2.05-2-.08-4-.04-5.99,0h0c-1.59,.03-3.18,.06-4.77,.03-.98-.02-1.96,0-2.95,0h0c-1.79,.02-3.57,.04-5.34-.12-1.83-.15-3.51-1.05-4.67-2.49-1.88-2.28-2.17-4.81-1.62-7.57,.05-.22,.14-.42,.25-.62,.57-1.16,.57-1.21-.75-1.4-.63-.07-1.27-.1-1.9-.09h-10.12c-.42,0-.84,.04-1.25,.07-.62,.06-1.24,.11-1.88,.04-.9-.09-1.73-.37-2.56-.64-.49-.16-.98-.33-1.48-.45-.68-.19-1.39-.2-2.07-.03-2.53,.63-5.13,.96-7.73,.97-6.81,.09-13.63,.06-20.43,.04h0c-1.3,0-2.6,0-3.9-.01-.34,0-.67,.04-1.01,.08-.52,.06-1.03,.12-1.55,.04-3.53-.55-6.06-2.37-7.15-5.87-.3-.97-.93-1.12-1.64-1.05-1.06,.1-2.11,.1-3.16,.1h-.55c-.65,0-1.02,.24-1.1,.92-.12,.73-.42,1.42-.88,1.99-.23,.31-.4,.66-.51,1.03-.5,1.98-1.55,2.79-3.59,2.79h-10.71c-.99-.01-1.97,.04-2.95,.16-2.39,.29-4.81-.11-6.98-1.14-3.67-1.66-5.11-5.67-4-9.33,.67-2.22,1.42-4.43,2.17-6.62,.14-.4,.26-.8,.39-1.21h0c.38-1.23,.77-2.46,1.46-3.57,.75-1.19,.44-1.68-.94-1.68h-3.72c-.73-.08-1.41,.41-1.56,1.14-.6,2.21-1.39,4.37-2.36,6.44-.25,.53-.44,1.09-.63,1.64-.27,.8-.54,1.6-1,2.32-.06,.08-.1,.17-.12,.26-.36,2.07-1.11,4.02-1.85,5.96h0c-.28,.73-.56,1.46-.82,2.2-.24,.82-.63,1.6-1.14,2.29-1,1.24-2.33,1.34-3.71,1.29-4.67-.17-9.34-.29-14,.06-1.97,.15-3.95-.23-5.73-1.09-1.03-.55-1.99-1.25-2.83-2.06-.67-.6-1.19-.48-1.95-.06-.26,.14-.52,.28-.77,.43-1.4,.78-2.78,1.55-4.4,2.02-2.06,.6-4.08,.59-6.1,.57-.41,0-.82,0-1.23,0-7.76,.03-15.52,.03-23.29,.03h0c-3.38,0-6.75,0-10.12,0-.7,.03-1.4-.08-2.06-.31l-.07-.03c-.22-.09-.49-.2-.66-.12-.84,.39-1.6,.16-2.36-.07-.35-.11-.7-.22-1.06-.26-.1,0-.19-.03-.27-.09-.38-.36-.79-.69-1.2-1.02-.88-.71-1.77-1.42-2.32-2.43-.89-1.63-1.25-3.36-.72-5.27,.64-2.43,1.53-4.79,2.67-7.03,.41-.79,.64-1.67,.87-2.55,.11-.43,.22-.85,.35-1.27,.17-.54,.36-1.09,.54-1.63,.36-1.06,.71-2.12,1-3.2,.26-.92,.67-1.78,1.08-2.63h0c.13-.26,.25-.52,.37-.78,.53-1.16,.9-2.36,1.27-3.56,.27-.87,.53-1.73,.86-2.58,.2-.51,.34-1.04,.48-1.57,.19-.72,.38-1.43,.7-2.08,.37-.74,.66-1.51,.95-2.28,.3-.8,.61-1.61,1-2.37,.3-.59,.48-1.23,.66-1.86h0c.11-.38,.21-.76,.34-1.13,.3-.83,.56-1.69,.82-2.54h0c.35-1.14,.69-2.27,1.14-3.37,.19-.47,.35-.95,.5-1.43,.34-1.05,.68-2.11,1.38-3,.09-.09,.15-.21,.18-.34,.09-1.06,.48-2.01,.86-2.98,.27-.66,.53-1.33,.7-2.02,.58-2.5,1.53-4.9,2.8-7.12,.61-1.04,1.23-2.08,1.94-3.07,1.13-1.55,2.65-2.6,4.18-3.65h0c.36-.25,.72-.49,1.07-.75,1.36-.97,2.93-1.32,4.53-1.62,.52-.13,1.07-.16,1.6-.06,.21,.08,.45,.09,.67,.04,1.32-.62,2.67-.5,4.02-.39,.61,.05,1.21,.1,1.81,.09,2.8-.07,5.59-.06,8.39-.04,.99,0,1.98,.01,2.97,.01,1.71,0,2.59,1.19,2.11,2.85-.24,.83-.48,1.65-.74,2.48-.29,.94,0,1.48,.94,1.34,1.13-.16,2.26-.13,3.38-.1,.49,.01,.98,.03,1.47,.02,1.57-.07,3.12,.36,4.43,1.21,.67,.46,1.22,.43,1.9-.06,1.46-1.05,3.26-1.17,4.93-1.18,3.3-.02,6.6-.03,9.91,.04,2.43,.05,4.89-.02,7.33-.1,.95-.03,1.83,.11,2.27,1.05,.39,.85,.05,1.61-.54,2.29-.43,.48-.67,1.1-.67,1.75,0,.29-.06,.57-.18,.83-.69,1.54-1.18,3.15-1.67,4.75h0c-.19,.62-.37,1.23-.57,1.84-.47,1.45-1.03,2.87-1.68,4.24-.07,.14-.14,.28-.21,.41h0c-.09,.17-.18,.35-.26,.53-.48,1.2-.13,1.66,1.11,1.54,.39-.04,.78-.04,1.17-.03h31.48c2.33,0,4.67,.2,7,.4,1.03,.09,1.77,.64,2.52,1.19,.44,.33,.89,.65,1.39,.88,.59,.27,.96,.36,1.54,0,2.67-1.58,5.56-2.2,8.64-2.32,6.13-.24,12.26-.2,18.39-.16,3.1,.02,6.19,.04,9.28,.03,1.62,.02,3.24,.23,4.81,.64,1.28,.34,2.18,1.41,2.89,2.5,.51,.78,.86,1.65,1.02,2.57,.01,.25,.13,.47,.32,.63,.19,.15,.44,.22,.68,.18h6.67c.96,0,1.56-.66,2.14-1.29l.06-.07c1.3-1.42,2.69-2.65,4.55-3.36,.4-.15,.78-.34,1.17-.54,.72-.36,1.44-.73,2.27-.8,.54-.05,1.07-.11,1.61-.16,1.3-.14,2.59-.28,3.89-.28,14.04-.04,28.07-.07,42.11,.03,2.05,.02,4.18,.16,6.19,.87,.35,.16,.75,.17,1.11,.04,1.6-.61,3.27-.74,4.96-.79,8.49-.26,16.98-.22,25.47-.18,5.16,.02,10.32,.05,15.49,0,1.49,0,1.75-.32,2.19-1.72,.89-2.81,1.97-5.52,4.39-7.46,.35-.28,.64-.61,.94-.95h0c.35-.4,.71-.81,1.16-1.12,2.72-1.97,5.99-3.02,9.34-2.98,2.83,.03,5.66,.03,8.48,.02,1.91,0,3.83,0,5.74,0,.48-.01,.95,.02,1.42,.1,.87,.16,1.22,.78,1.14,1.61-.05,.48-.17,.94-.35,1.39-1.03,2.64-2.07,5.27-3.13,7.89-.28,.71-.48,1.46-.59,2.22-.12,.82,.28,1.2,1.1,1.15,3.28-.24,6.55-.19,9.83-.15,1.33,.02,2.67,.04,4,.04,.31,0,.61,0,.92,0,1.13,0,2.25,0,3.37-.05,1.88-.05,3.75,.15,5.58,.61,1.14,.25,2,.99,2.84,1.72,.19,.16,.37,.32,.56,.48,.9,.75,1.06,.74,2.04,.09,1.67-1.11,3.31-2.11,5.4-2.44,2.17-.32,4.35-.47,6.54-.45,2.33,0,4.66,0,6.98,0,6.14,0,12.28-.01,18.41,.03,2.06,.02,4.09,.36,5.82,1.76,1.14,.94,1.9,2.27,2.13,3.73,.15,.74,.54,.96,1.25,1.03,1.16,.12,2.32,.07,3.47,.01,.94-.04,1.87-.09,2.81-.04,.61,.03,.97-.35,1.36-.76h0c2.83-3.02,6.05-5.18,10.37-5.42,3.26-.18,6.52-.16,9.78-.14,1.99,.01,3.98,.03,5.96,0,.26,0,.51,.04,.76,.09,1.63,.25,2.62-.36,3.12-1.95,.78-2.45,2-4.67,3.29-6.88,1.06-1.83,2.37-3.36,4.3-4.34,.32-.16,.57-.43,.83-.71,.16-.18,.33-.35,.51-.5,2.47-1.95,5.37-2.73,8.42-2.78,3.22-.05,6.44-.05,9.67-.04,2.47,0,4.95,.01,7.42-.01,.6-.05,1.18,.23,1.51,.73,.33,.5,.36,1.15,.08,1.68-.55,.97-.84,2.02-1.14,3.07-.2,.73-.41,1.45-.7,2.15-.41,1-.76,2.02-1.12,3.04-.37,1.08-.75,2.16-1.19,3.22-.82,1.89-1.52,3.83-2.09,5.81-.06,.21-.13,.46,.08,.62s.44,.03,.6-.11c.78-.67,1.7-1.11,2.61-1.54,.44-.21,.87-.41,1.29-.65,.97-.54,2.07-.64,3.14-.72,6.8-.53,13.6-.46,20.41-.4,3.21,.03,6.42,.06,9.63,.03,1.14-.01,2.27,.17,3.41,.36,.47,.08,.94,.15,1.41,.22,.61,.08,1.15,.43,1.48,.95,.24,.34,.54,.72,1,.61,.32-.08,.33-.33,.34-.59,0-.11,0-.23,.04-.32,.09-.31,.19-.61,.28-.92,.42-1.4,.84-2.8,1.5-4.11,.08-.14,.15-.28,.2-.44,.47-1.78,1.11-3.49,1.76-5.21h0c.4-1.06,.79-2.11,1.15-3.18,.16-.47,.29-.94,.43-1.42h0c.4-1.39,.81-2.78,1.67-3.99,.37-.52,.73-.97,1.38-1.07,.44-.08,.89-.12,1.33-.13,1.76,0,3.52,0,5.27,0,3.52,0,7.04-.01,10.55,0,1.72,0,3.42,.18,4.93,1.2,.67,.49,1.57,.52,2.28,.09,1.67-1.08,3.55-1.19,5.41-1.27,2.54-.11,5.09-.07,7.64,0,1,.06,1.96-.4,2.54-1.21,1.3-1.68,3.07-2.69,4.95-3.58,1.03-.54,2.11-.98,3.23-1.3,1.39-.31,2.82-.47,4.24-.48,1.92-.08,3.84-.04,5.75,0,1.96,.04,3.91,.08,5.87,0,.56-.03,1.12-.02,1.67-.01,.83,0,1.66,.02,2.5-.08,.98-.15,1.95,.29,2.49,1.12,.55,.88,.24,1.73-.28,2.51-.25,.41-.41,.87-.49,1.34-.09,.61-.37,1.17-.8,1.6-.24,.22-.39,.51-.46,.83-.64,2.97-1.67,5.84-2.7,8.68-.08,.22-.16,.44-.24,.66h0c-.44,1.23-.89,2.5-1.62,3.67-.6,.97-.89,2.15-1.17,3.31-.08,.31-.16,.63-.24,.94-.62,2.28-1.26,4.54-2.37,6.64-.42,.8-.11,1.27,.86,1.25,1.53-.03,2.97,.13,4.19,1.22,1.12,.91,1.79,2.25,1.87,3.69,.13,2.23-.65,4.18-1.44,6.13h0l-.11,.28c-.06,.16-.12,.31-.19,.47-.02,.04-.04,.08-.06,.12-.03,.04-.05,.09-.07,.14-.36,1.1-.79,2.18-1.22,3.26h0c-.65,1.63-1.3,3.25-1.7,4.97-.31,1.32-.81,2.6-1.32,3.88-.14,.36-.28,.72-.42,1.08-.31,.8-.63,1.59-.95,2.38h0c-.76,1.87-1.52,3.73-2.05,5.68-.58,2.17-1.67,4.16-3.18,5.81-.29,.32-.54,.68-.79,1.03-.39,.55-.77,1.1-1.32,1.54-.93,.71-1.92,1.36-2.96,1.92-.2,.11-.4,.21-.6,.31h0c-.48,.24-.96,.47-1.35,.86-.11,.12-.26,.19-.42,.22-.81,.03-1.59,.24-2.37,.45-.9,.24-1.8,.49-2.76,.46-1.54-.03-3.08-.01-4.63,0h0c-.9,0-1.8,.02-2.7,.02Z"/><path class="cls-1" d="M428.53,45.41c2.27,0,4.53-.02,6.8,0,.94,0,1.88,.1,2.71,.71,1.52,1.11,1.96,2.6,1.5,4.45-.35,1.42,.19,2.19,1.58,2.02,2.13-.26,4.25-.08,6.38-.13,1.49-.01,2.97,.07,4.45,.23,.91,.08,1.68,.72,1.95,1.63,.33,.94,.05,1.61-.52,2.48-1.29,1.98-3.07,2.23-5.05,2.19-2.2-.04-4.39,.1-6.59-.17-1.65-.2-3.31,.05-4.96,.19-1.95,.16-3.19-.92-4.25-2.36-.5-.68-.35-1.48-.22-2.25,.43-2.55,.35-2.6-2.13-2.6h-8.73c-.51,.01-1.01-.03-1.51-.13-2.08-.46-2.87-2.36-1.66-4.18,.8-1.22,1.89-2.09,3.46-2.06,2.26,.04,4.53,0,6.8,0v-.02Z"/><path class="cls-1" d="M145.45,45.42h9.1c1-.01,1.95,.43,2.61,1.22,.65,.79,.93,1.83,.76,2.85-.38,2.76-.24,2.9,2.38,2.94,3.27,.05,6.55-.22,9.81,.19,.89,.11,1.85,.16,2.22,1.19,.39,1.08,.21,2.3-.49,3.2-1.15,1.66-2.66,2.26-4.62,1.92-1.76-.3-3.53-.17-5.31-.04-2.49,.15-4.98,.16-7.47,.03-1.43-.06-2.26-1.33-3.4-2-.29-.17-.36-.63-.29-.98,.16-1.03-.23-2.02-.08-3.06,.11-.76-.55-1.02-1.14-1.06-1.39-.13-2.79-.18-4.19-.12-1.77,.12-3.53-.15-5.3,.05-1.41,.16-2.46-.71-3.42-1.64-.56-.54-.6-2.22-.04-2.76,1.09-1.08,2.25-2.03,3.93-1.94,1.68,.09,3.27,.01,4.91,.01Z"/><path class="cls-1" d="M504.73,52.44c1.65,.07,3.73-.15,5.79,.21,1.04,.19,2.02,.41,2.39,1.63,.19,.6,.28,1.25-.1,1.74-1.1,1.39-2.05,3-4.15,2.96-3.08-.07-6.17,.11-9.25-.11-1.05-.04-2.1,0-3.14,.13-2.02,.18-3.6-.67-4.92-2.17-.3-.34-.47-.78-.49-1.24,0-.56,.09-1.12,.29-1.65,.51-1.63,.16-2.12-1.52-2.13-2.95,0-5.89-.03-8.84,0-.92,.03-1.82-.2-2.63-.66-1.8-1.03-1.91-3.38-.27-4.66,1.32-1.04,2.75-1.11,4.32-1.08,4.14,.09,8.28,.07,12.42,0,1.24,0,2.13,.57,2.99,1.34,1.04,.95,1.18,2.15,.79,3.47-.48,1.59-.06,2.19,1.52,2.22,1.45,0,2.91,0,4.78,0Z"/><path class="cls-1" d="M388.67,59.03c-2.71-.11-5.34,.13-8.01-.2-1.52-.19-2.66-1.27-2.74-2.86-.05-.98,0-1.98,0-2.96s-.42-1.42-1.39-1.33c-3.18,.3-6.37,0-9.56,.12-.88,.03-1.74-.31-2.57-.61-.65-.18-1.12-.78-1.16-1.48-.07-1.06,.07-2.03,.98-2.73,1.34-1.08,3.01-1.64,4.71-1.55,4.11,.14,8.23,.04,12.34,.04,2.71,0,4.43,2.26,3.85,5.01-.32,1.52,0,1.95,1.57,1.97,2.01,.02,4.01,0,6.02,0,1.7,.03,3.39,.12,5.09,.21,.88,.05,1.6,.73,1.73,1.64,.25,2.21-1.25,4.22-3.37,4.52-2.52,.37-5.04,.08-7.49,.22Z"/></g></g></svg>