<?xml version="1.0" encoding="UTF-8"?>
<svg id="Layer_1" xmlns="http://www.w3.org/2000/svg" version="1.1" viewBox="0 0 596 187">
  <!-- Generator: Adobe Illustrator 29.2.0, SVG Export Plug-In . SVG Version: 2.1.0 Build 108)  -->
  <defs>
    <style>
      .st0 {
        fill: #fff;
      }
    </style>
  </defs>
  <path class="st0" d="M144,118.5c0,22.8-6.1,40-18.2,51.5-12.2,11.3-29.5,17-52,17s-41-5.4-54-16.2C6.9,159.8.5,142.3.5,118.5V4.5h23.8v114c0,16,4.2,28.2,12.8,36.5,8.5,8.2,20.8,12.2,36.8,12.2s26.7-4.1,34.5-12.2c8-8.3,12-20.5,12-36.5V4.5h23.8v114ZM240.7,93.8c0,9,1.2,17.9,3.5,26.8,2.3,8.7,6,16.5,11,23.5,5,7,11.4,12.7,19.3,17,7.8,4.2,17.2,6.2,28,6.2s20.2-2.1,28-6.2c7.8-4.3,14.2-10,19.2-17s8.7-14.8,11-23.5c2.3-8.8,3.5-17.8,3.5-26.8s-1.2-17.8-3.5-26.5c-2.3-8.8-6-16.8-11-23.8s-11.4-12.6-19.2-16.8c-7.8-4.3-17.2-6.5-28-6.5s-20.2,2.2-28,6.5c-7.8,4.2-14.2,9.8-19.3,16.8-5,7-8.7,14.9-11,23.8-2.3,8.7-3.5,17.5-3.5,26.5ZM216.9,93.8c0-12.2,1.8-23.8,5.2-35,3.7-11.3,9.1-21.3,16.2-30,7.2-8.7,16.1-15.6,26.8-20.8,10.7-5.2,23.1-7.7,37.2-7.7s26.6,2.6,37.2,7.7c10.7,5.2,19.6,12.1,26.8,20.8,7.2,8.7,12.5,18.7,16,30,3.7,11.2,5.5,22.8,5.5,35s-1.8,23.9-5.5,35.2c-3.5,11.2-8.8,21.1-16,29.8-7.2,8.7-16.1,15.6-26.8,20.8-10.7,5-23.1,7.5-37.2,7.5s-26.6-2.5-37.2-7.5c-10.7-5.2-19.6-12.1-26.8-20.8-7.2-8.7-12.6-18.6-16.2-29.8-3.5-11.3-5.2-23.1-5.2-35.2ZM504.4,91.2L445.6,4.5h28.5l44.5,69.8,46.5-69.8h26.5l-59,86.8,62.8,91.8h-29l-48-73.8-49.5,73.8h-26.5l62-91.8Z"/>
</svg>